<svg 
  xmlns="http://www.w3.org/2000/svg" width="744.094" height="1052.362">
  <g>
    <path fill="#4e9a06" d="M128.571 178.076H314.28499999999997V303.78999999999996H128.571z"/>
    <g fill="#3465a4">
      <path d="M217.143 378.076H537.143V486.64700000000005H217.143z"/>
      <path transform="translate(-25.714286,-17.142857)" d="m 474.2857,513.79077 a 72.85714,67.14286 0 1 1 -145.71428,0 72.85714,67.14286 0 1 1 145.71428,0 z"/>
    </g>
  </g>
  <g>
    <g fill="#ce5c00">
      <path d="m 328.57143,682.36218 a 101.42857,84.285713 0 1 1 -202.85715,0 101.42857,84.285713 0 1 1 202.85715,0 z"/>
      <path d="m 420.00001,788.07648 a 94.285713,81.428574 0 1 1 -188.57143,0 94.285713,81.428574 0 1 1 188.57143,0 z"/>
    </g>
  </g>
  <g>
    <path fill="#a40000" d="M85.714 66.648H422.85699999999997V155.219H85.714z"/>
  </g>
</svg>