<?xml version="1.0" encoding="UTF-8" standalone="no"?>
<!-- Created with Inkscape (http://www.inkscape.org/) -->

<svg
   xmlns:dc="http://purl.org/dc/elements/1.1/"
   xmlns:cc="http://creativecommons.org/ns#"
   xmlns:rdf="http://www.w3.org/1999/02/22-rdf-syntax-ns#"
   xmlns:svg="http://www.w3.org/2000/svg"
   xmlns="http://www.w3.org/2000/svg"
   version="1.1"
   width="744.09448"
   height="1052.3622"
   id="svg2">
  <defs
     id="defs4" />
  <metadata
     id="metadata7">
    <rdf:RDF>
      <cc:Work
         rdf:about="">
        <dc:format>image/svg+xml</dc:format>
        <dc:type
           rdf:resource="http://purl.org/dc/dcmitype/StillImage" />
        <dc:title></dc:title>
      </cc:Work>
    </rdf:RDF>
  </metadata>
  <g
     id="layer1">
    <rect
       width="211.42857"
       height="91.428574"
       x="105.71429"
       y="109.50504"
       id="rect2985"
       style="fill:#204a87" />
    <rect
       width="177.14287"
       height="68.571426"
       x="242.85713"
       y="158.07648"
       id="rect2987"
       style="fill:#cc0000" />
    <path
       d="m 348.57144,338.07648 a 62.857143,54.285713 0 1 1 -125.71429,0 62.857143,54.285713 0 1 1 125.71429,0 z"
       id="path2989"
       style="fill:#729fcf" />
    <path
       d="m 634.28571,193.79076 a 127.14286,55.714287 0 1 1 -254.28572,0 127.14286,55.714287 0 1 1 254.28572,0 z"
       id="path2991"
       style="fill:#e9b96e" />
    <path
       d="m 142.85714,552.3622 -42.18282,-46.8877 -62.539049,8.16784 31.557644,-54.60734 -27.093714,-56.95417 61.686519,13.13851 45.79421,-43.36746 6.56672,62.72738 55.3961,30.15161 -57.62806,25.62915 z"
       id="path2993"
       style="fill:#e9b96e" />
    <path
       d="m 514.28572,558.07646 -79.65336,-14.02319 -74.63234,31.16605 14.02318,-79.65337 -31.16604,-74.63234 79.65337,14.02319 74.63234,-31.16605 -14.02319,79.65337 z"
       id="path2995"
       style="fill:#e9b96e" />
    <path
       d="M 294.28571,743.79077 207.50968,714.03914 186.75417,803.39487 146.43183,720.99737 68.571426,769.50506 98.32306,682.72902 8.9673236,661.97352 91.364828,621.65118 42.85714,543.79077 l 86.77603,29.75164 20.75551,-89.35574 40.32234,82.3975 77.86041,-48.50768 -29.75164,86.77603 89.35574,20.75551 -82.3975,40.32233 z"
       transform="translate(94.285714,51.428571)"
       id="path2997"
       style="fill:#e9b96e" />
    <path
       d="m 531.42859,652.36218 c 3.43807,7.44913 -8.34506,8.30959 -12.38095,5.7143 -10.93701,-7.03308 -7.23086,-22.99551 0.95235,-30.47619 14.63785,-13.38119 37.54794,-7.14003 48.57144,7.619 16.17743,21.65947 7.12255,52.32526 -14.28565,66.66668 -28.53377,19.11486 -67.18602,7.1409 -84.76193,-20.9523 -22.11749,-35.35242 -7.17869,-82.08743 27.61895,-102.85717 42.14462,-25.15495 97.0119,-7.22793 120.95242,34.2856 28.21307,48.92226 7.28437,111.95079 -40.95225,139.04766 -55.6911,31.28442 -126.89929,7.34563 -157.14291,-47.6189 -34.36472,-62.45419 -7.41023,-141.85454 54.28556,-175.23815 69.21334,-37.45138 156.8147,-7.47727 193.33339,60.9522 40.54268,75.96968 7.54611,171.77856 -67.61885,211.42864"
       id="path3020"
       style="fill:#4e9a06;stroke:#000000;stroke-width:1px;stroke-linecap:butt;stroke-linejoin:miter;stroke-opacity:1" />
    <path
       d="m 62.857143,889.50504 c 35.238095,0 70.476187,0 105.714287,0 4.84709,0 10.35986,-1.06871 14.28571,2.85714 1.50585,1.50585 1.67586,3.94236 2.85715,5.71429 0.7471,1.12066 2.11003,1.73648 2.85714,2.85714 2.36256,3.54385 3.35172,7.88472 5.71428,11.42857 0.74711,1.12067 2.11004,1.73648 2.85715,2.85715 2.36256,3.54385 3.35172,7.88472 5.71428,11.42857 0.74711,1.12066 2.43123,1.57939 2.85715,2.85714 0.60233,1.80702 -0.60234,3.90727 0,5.71429 0.85183,2.5555 4.5096,3.30493 5.71428,5.71428 0.42592,0.85184 0,1.90476 0,2.85714 0.95238,1.90477 1.57939,4.01062 2.85714,5.71429 1.61625,2.15499 3.80953,3.80952 5.71429,5.71429 0.95238,0.95238 2.2548,1.65246 2.85714,2.85714 0,7.61905 -0.95238,-0.95238 2.85715,2.85714 0.67343,0.67344 -0.85184,2.43123 0,2.85714 1.70367,0.85184 3.80952,0 5.71428,0 4.76191,0 9.52381,0 14.28572,0 2.47595,0 9.7735,0.55169 11.42857,0 10.35797,-3.45265 2.03342,-1.35561 8.57143,-5.71428 1.77192,-1.18128 4.20843,-1.3513 5.71428,-2.85714 3.36718,-3.36718 4.31225,-9.29899 8.57143,-11.42858 2.28571,-1.14285 6.28571,1.14286 8.57143,0 0.85183,-0.42591 -0.67344,-2.1837 0,-2.85714 0.67343,-0.67343 2.18371,0.67344 2.85714,0 0.67344,-0.67343 -0.42592,-2.00531 0,-2.85714 0.60234,-1.20468 1.90476,-1.90476 2.85714,-2.85714 0,-1.90477 -0.46197,-3.8664 0,-5.71429 0.68288,-2.7315 5.72134,-10.00352 8.57143,-11.42857 0.85184,-0.42592 2.18371,0.67343 2.85715,0 0.67343,-0.67344 -0.85184,-2.43123 0,-2.85714 1.78885,-0.89443 6.78257,0.89442 8.57142,0 5.71233,-2.85617 -0.0505,-6.64983 5.71429,-8.57143 2.57143,-0.85715 6,0.85714 8.57143,0 2.0203,-0.67344 3.69398,-2.18371 5.71428,-2.85715 1.80702,-0.60233 3.80953,0 5.71429,0 1.90476,0 3.8664,-0.46197 5.71429,0 1.0199,0.25498 16.58029,8.00887 17.14285,8.57143 1.50585,1.50585 1.67586,3.94236 2.85715,5.71429 0.7471,1.12066 2.2548,1.65246 2.85714,2.85714 0.42592,0.85184 -0.30117,1.95364 0,2.85714 1.34687,4.04061 4.13247,7.47403 5.71428,11.42858 1.11852,2.79628 1.73863,5.77514 2.85715,8.57142 0.79091,1.97728 2.34064,3.64829 2.85714,5.71429 0.46197,1.84789 -0.85184,4.01061 0,5.71429 7.36266,14.72532 2.67585,2.76649 8.57143,5.71428 1.20468,0.60234 1.65246,2.25481 2.85714,2.85714 0.85184,0.42592 1.90476,0 2.85714,0 0.95239,0 1.90477,0 2.85715,0 2.85714,0 5.71428,0 8.57143,0 1.90476,0 4.01061,0.85184 5.71428,0 16.05321,-8.0266 19.08451,-22.22586 25.71429,-37.14285 1.72981,-3.89209 4.21879,-7.44058 5.71428,-11.42857 1.37878,-3.67675 2.21159,-7.55524 2.85715,-11.42858 0.26404,-1.58428 -0.23726,-11.19131 0,-11.42857 1.50584,-1.50584 3.80952,-1.90476 5.71428,-2.85714 1.90476,-0.95238 3.66664,-2.2721 5.71429,-2.85714 15.03252,-4.29501 30.30108,-2.85715 45.71428,-2.85715 13.78565,0 12.89602,-0.62628 28.57143,2.85715 2.93998,0.65332 5.87769,1.51027 8.57143,2.85714 1.20468,0.60234 1.90476,1.90476 2.85714,2.85714 0.95238,0.95238 2.11004,1.73648 2.85715,2.85715 1.18128,1.77192 1.67586,3.94236 2.85714,5.71428 0.74711,1.12066 2.43122,1.57939 2.85714,2.85714 0.60234,1.80702 -0.46197,3.8664 0,5.71429 0.5165,2.066 2.06623,3.73701 2.85714,5.71429 8.28638,20.71594 -0.19565,-0.97828 2.85715,14.28571 0.59064,2.95321 2.2665,5.61822 2.85714,8.57143 0.022,0.11 -0.014,8.55742 0,8.57143 0.67344,0.67343 1.90476,0 2.85714,0 2.85715,0 5.71429,0 8.57143,0 2.85714,0 5.79959,0.69296 8.57143,0 4.39518,-1.0988 11.98235,-7.97353 14.28571,-11.42857 0.52829,-0.79243 0,-1.90477 0,-2.85715 1.90477,-1.90476 3.80953,-3.80952 5.71429,-5.71428 0.95238,-0.95238 1.90476,-1.90477 2.85714,-2.85715 0.95238,-0.95238 2.25481,-1.65246 2.85715,-2.85714 0.42591,-0.85183 -0.67344,-2.18371 0,-2.85714 3.80952,-3.80953 2.85714,4.7619 2.85714,-2.85714"
       id="path3022"
       style="fill:none;stroke:#000000;stroke-width:1px;stroke-linecap:butt;stroke-linejoin:miter;stroke-opacity:1" />
    <path
       d="m 465.71429,286.6479 c 177.14285,11.42857 222.85714,-82.85715 177.14285,8.57143 C 597.14286,386.6479 597.14286,386.6479 597.14286,386.6479 660,446.6479 660,449.50504 660,449.50504 l 60,-100 -20,-100 -22.85714,-157.142857"
       id="path3024"
       style="fill:none;stroke:#000000;stroke-width:1px;stroke-linecap:butt;stroke-linejoin:miter;stroke-opacity:1" />
    <path
       d="m 90.607418,226.59987 c 5.241014,12.49442 14.132982,23.24099 22.526022,33.75739 7.65157,8.32485 13.03367,18.94023 22.20427,25.76572 6.30529,3.42968 13.42318,0.11963 19.68216,-1.89851 6.53733,-2.59051 13.45262,-3.51524 20.41223,-4.00155 1.76294,-0.11109 3.43788,0.0303 5.0307,-0.89966 0.56428,-0.32944 1.98077,-1.68 1.41021,-1.36154 -11.64909,6.50194 -22.94507,13.63383 -34.70007,19.94228 -0.67825,0.36399 0.91132,-1.25787 1.20774,-1.96825 0.48462,-1.16144 0.74549,-2.40405 1.11824,-3.60607 1.88552,-8.32901 4.52636,-16.13765 9.1004,-23.35604 3.17841,-4.07321 6.60185,-8.30758 11.17183,-10.91277 39.16352,-22.32588 24.61132,-18.93766 42.85898,-22.70137 7.51282,-0.93444 15.25015,-1.69644 22.78093,-0.6606 7.78424,1.30111 12.38273,2.36238 16.94239,9.11602 3.20258,5.85269 3.66984,11.89167 2.64326,18.3687 -1.95858,6.35132 -5.57258,12.13424 -9.71493,17.29118 -3.58433,3.80094 -6.76763,7.92033 -10.04106,11.98233 -3.01895,4.48112 -6.38944,8.6409 -10.37858,12.28692 -15.81317,13.17657 -35.82176,22.41474 -53.14016,32.30336 -6.44737,5.0447 -14.91412,5.44077 -21.9118,9.04334 -15.06144,8.84629 11.89568,-7.00106 31.23561,-17.80435 0.64499,-0.3603 -1.20365,0.86877 -1.72286,1.39437 -1.40893,1.42627 -2.05191,2.94021 -2.37259,4.8608 1.33894,5.13492 5.7475,9.0323 9.58414,12.46522 5.12407,3.58505 10.31142,7.1195 15.77218,10.17158 5.20432,3.72697 9.32546,8.54389 13.81134,13.0278 4.18033,5.34636 7.11137,11.47387 10.0766,17.54138 3.65368,6.63983 7.6162,13.12481 12.03684,19.28434 4.20816,6.04152 7.80651,12.46487 11.19333,18.99152 2.29883,7.05814 8.2632,11.84912 11.37912,18.32031 0.17304,2.21045 0.59163,4.41533 0.51912,6.63135 -0.20982,6.41223 -2.05448,15.02952 -3.32676,21.07859 -2.76991,13.16956 -6.35506,26.06112 -10.05064,38.99325 -4.51045,16.1599 -8.36276,32.49111 -14.42754,48.16171 -8.88783,20.12131 -30.97093,32.01627 -52.19756,36.54833 -12.79994,1.36825 -25.70207,1.21876 -38.55705,1.19752 -13.71635,0.0191 -27.43288,-0.0629 -41.14912,-0.0277 -5.114241,0.0241 -10.228302,0.0735 -15.342391,0.11779 -1.338531,0.0116 -2.706033,-0.24316 -4.0156,0.034 -2.092719,0.44297 -4.636156,2.45126 -6.311139,3.60587 55.76537,-33.58457 35.66657,-22.88663 25.12369,-11.43695 -3.532929,3.83679 -6.927104,7.63592 -10.703499,11.24423 -7.544427,6.58305 -16.622593,10.7593 -22.912288,18.68291 -3.416635,5.98313 -6.667673,13.37348 -4.049794,20.28229 0.667423,1.76139 1.692368,3.36566 2.538552,5.04849 8.381725,11.60207 20.123929,19.75552 32.918517,25.79872 1.832812,0.67559 3.646882,1.40434 5.498422,2.02677 3.08809,1.03812 5.47936,2.05196 8.76855,1.3128 5.10619,-1.14749 3.43225,-4.55981 8.70807,-0.62772 0.34397,1.5317 1.07683,3.02589 1.0319,4.5951 -0.0697,2.43585 -3.04851,10.13712 -3.76084,11.80855 -3.84977,9.03319 -8.76317,17.66461 -13.2372,26.39378 -9.348552,18.54486 -16.835551,37.93773 -22.502006,57.90232 -2.415322,8.8786 -3.587342,18.00704 -5.718476,26.94782 0.760266,1.71013 -2.652814,4.36507 -2.111947,5.94924 0.169388,0.49613 1.042494,0.1645 1.534029,0.34679 2.528308,1.90967 5.3341,3.27195 8.360425,4.14479 0,0 -34.953724,23.60116 -34.953724,23.60116 l 0,0 c -3.107335,-1.3002 -6.029365,-2.90115 -8.894717,-4.67754 -4.542814,-3.13943 -5.039822,-6.63617 -1.939954,-11.1699 2.464439,-9.24535 4.710245,-18.52504 7.122244,-27.79039 6.092034,-20.11217 13.381461,-39.8536 22.603483,-58.76218 4.221706,-8.44469 8.855032,-16.82213 12.507279,-25.53831 0.822456,-1.96282 1.517275,-3.97865 2.174108,-6.00291 0.442658,-1.36421 0.441909,-2.89097 1.121581,-4.15393 0.200188,-0.37198 0.829344,-0.16118 1.244017,-0.24178 -1.005053,1.07642 -0.549674,0.74791 -3.229796,1.16234 -6.755255,1.04455 -12.664829,-1.87341 -18.649334,-4.65204 -13.14514,-6.99172 -25.428317,-15.80557 -34.385508,-27.87863 -2.069045,-3.72112 -4.302418,-6.94161 -5.042632,-11.23857 -1.037721,-6.02399 2.023236,-12.58967 4.20509,-17.95678 2.240077,-3.76925 2.52652,-4.85473 5.762433,-7.89189 5.044765,-4.73491 11.806971,-7.08546 16.922186,-11.73937 5.232345,-4.53139 9.523354,-9.53436 14.114803,-14.68527 12.860504,-14.42753 8.39678,-6.66146 42.459336,-27.02643 8.58979,-3.38025 17.30821,-1.43693 26.36688,-1.73359 13.63098,0.10811 27.26293,0.16074 40.8943,0.17959 12.85253,-0.12121 25.94748,0.22624 38.54371,-2.66158 15.46928,-6.0284 5.17513,-2.2529 -28.61525,17.70133 -1.00196,0.59168 2.08073,-1.07646 2.98779,-1.80534 3.10774,-2.49727 5.26694,-6.15704 7.09931,-9.60137 7.1749,-15.62704 11.83439,-32.16524 16.59487,-48.6509 5.98395,-20.29457 12.75387,-41.43291 11.87087,-62.8067 -3.20138,-6.36444 -8.76878,-11.41975 -11.20692,-18.28992 -3.34219,-6.31528 -6.8885,-12.53527 -10.91838,-18.43942 -4.63811,-6.27524 -8.33799,-13.19414 -12.35036,-19.87476 -2.94211,-5.57136 -5.583,-11.41361 -9.62197,-16.29491 -4.18539,-4.25803 -7.99474,-8.89177 -13.10535,-12.15102 -5.6131,-3.34292 -11.1903,-6.78079 -16.27289,-10.9058 -4.61002,-4.21301 -9.4096,-9.02986 -11.34971,-15.08944 -0.21874,-1.06287 -0.65993,-2.10348 -0.6562,-3.18862 0.005,-1.56326 1.68268,-6.14127 3.04011,-6.9925 31.33878,-19.65216 25.13385,-16.77912 40.86028,-23.73576 7.46724,-2.46001 14.85658,-4.921 21.53273,-9.23558 -61.58469,35.72885 -31.1218,19.32595 -18.36252,9.67081 4.07043,-3.33683 7.87928,-6.83104 10.61313,-11.41024 3.00488,-4.30375 6.22652,-8.58481 10.10157,-12.15722 1.25534,-1.56948 2.73628,-2.95159 3.96665,-4.54072 2.59753,-3.35492 4.43237,-7.41884 6.58834,-11.04344 1.6148,-5.20113 1.27514,-10.30314 -1.11623,-15.24828 -3.38016,-4.77341 -9.29923,-5.47599 -14.79789,-6.12375 -7.30035,-0.31814 -14.72277,0.0207 -21.82012,1.87154 -15.37391,5.65918 -2.91944,1.29722 29.41128,-17.89792 1.05041,-0.62365 -2.22786,1.01281 -3.28382,1.62702 -3.60734,2.09826 -2.85959,1.95121 -5.84161,4.87082 -0.93075,0.91126 -1.89838,1.78407 -2.84757,2.67611 -4.7417,7.05413 -8.20761,13.48509 -9.65228,22.05175 -0.23062,1.26825 -0.47111,2.53473 -0.69185,3.80473 -0.18059,1.03901 0.35182,2.51723 -0.51211,3.12203 -22.88908,16.02353 -25.71608,23.00775 -44.34254,24.05539 -6.7345,0.75181 -13.28325,2.28577 -19.68697,4.52652 -7.56833,2.15736 -15.45519,3.90751 -22.179875,-1.39033 -8.59423,-7.82423 -13.907225,-18.44235 -21.484032,-27.18466 -8.763836,-10.87472 -17.633164,-21.84194 -24.710804,-33.90944 0,0 36.990639,-20.65655 36.990639,-20.65655 z"
       id="path3026"
       style="fill:#4e9a06" />
  </g>
</svg>
